<svg xmlns="http://www.w3.org/2000/svg" width="43.181" height="43.181" viewBox="0 0 43.181 43.181">
  <g id="グループ_152818" data-name="グループ 152818" transform="translate(-279.504 -2584.088)">
    <circle id="楕円形_2945" data-name="楕円形 2945" cx="21.59" cy="21.59" r="21.59" transform="translate(279.504 2584.088)" fill="#4082c4" opacity="0.12"/>
    <path id="パス_1284635" data-name="パス 1284635" d="M19.117,15.147l-1.889-1.473a2.489,2.489,0,0,0-3.207.126,8.077,8.077,0,0,0-.872.891.214.214,0,0,1-.05.046l-.009.007a.38.38,0,0,1-.258.032h0c-1.014-.159-3.738-2.61-4.32-3.215-.692-.665-3.8-4.13-3.13-4.639a8.056,8.056,0,0,0,.891-.872A2.489,2.489,0,0,0,6.4,2.842L4.923.953A2.474,2.474,0,0,0,4.537.566L4.507.542A2.456,2.456,0,0,0,4.3.4L4.266.372a2.481,2.481,0,0,0-.74-.306h0A2.494,2.494,0,0,0,3.256.019l-.017,0A2.462,2.462,0,0,0,.65,1.566,7.7,7.7,0,0,0,.026,4.975c.006.051.022.113.033.168l0,.025c.368,1.856,3.2,5.918,5.324,8.268l.083.091c.048.053.1.11.146.161l0,0c.1.111.655.663.766.766l0,0c2.3,2.14,6.6,5.17,8.521,5.552l.026.005c.055.011.116.027.168.033A7.7,7.7,0,0,0,18.5,19.42a2.487,2.487,0,0,0,.613-4.273Z" transform="matrix(0.996, 0.087, -0.087, 0.996, 291.973, 2595.133)" fill="rgba(0,0,0,0)" stroke="#4082c4" stroke-width="2"/>
  </g>
</svg>
